<?xml version="1.0" encoding="iso-8859-1"?>
<!-- Uploaded to: SVG Repo, www.svgrepo.com, Generator: SVG Repo Mixer Tools -->
<svg version="1.1" id="Layer_1" xmlns="http://www.w3.org/2000/svg" xmlns:xlink="http://www.w3.org/1999/xlink" 
	 viewBox="0 0 512 512" xml:space="preserve">
<rect x="7.286" y="256" style="fill:#164FCE;" width="497.43" height="124.36"/>
<rect x="7.286" y="380.36" style="fill:#ED1F34;" width="497.43" height="124.36"/>
<rect x="7.286" y="7.286" style="fill:#FFE000;" width="497.43" height="248.71"/>
<path d="M504.713,0H73.61c-4.024,0-7.287,3.262-7.287,7.286s3.262,7.287,7.287,7.287h423.817v234.14H14.573V14.573h25.875
	c4.024,0,7.286-3.262,7.286-7.287S44.472,0,40.448,0H7.286C3.262,0,0,3.262,0,7.286v497.427C0,508.738,3.262,512,7.286,512h497.427
	c4.024,0,7.287-3.262,7.287-7.286V7.286C512,3.262,508.738,0,504.713,0z M497.427,263.286V373.07H14.573V263.286H497.427z
	 M14.573,497.427V387.643h482.854v109.784H14.573z"/>
<path style="fill:#FFE000;" d="M146.469,214.81v88.256c0,16.435,13.324,29.759,29.759,29.759h159.543
	c16.436,0,29.76-13.324,29.76-29.759V214.81H146.469z"/>
<path d="M365.531,207.524H146.469c-4.024,0-7.286,3.262-7.286,7.286v88.255c0,20.428,16.618,37.047,37.046,37.047h72.485v40.245
	c0,4.025,3.262,7.287,7.287,7.287c4.024,0,7.286-3.262,7.286-7.287v-40.245h72.485c20.427,0,37.046-16.619,37.046-37.047V214.81
	C372.818,210.786,369.555,207.524,365.531,207.524z M358.245,303.065c0,12.392-10.081,22.474-22.473,22.474h-79.753
	c-0.006,0-0.012-0.001-0.019-0.001c-0.006,0-0.013,0.001-0.019,0.001h-79.753c-12.392,0-22.473-10.082-22.473-22.474v-80.969h204.49
	V303.065z"/>
<ellipse style="fill:#3DB4EA;" cx="256" cy="256" rx="63.14" ry="76.83"/>
<path d="M365.531,139.832h-86.318c-2.336,0-4.531,1.12-5.902,3.013L256,166.751l-17.312-23.906
	c-1.371-1.893-3.566-3.013-5.902-3.013h-86.318c-4.024,0-7.286,3.262-7.286,7.286c0,4.025,3.262,7.286,7.286,7.286h82.598
	l13.738,18.971c-32.549,7.399-57.234,41.632-57.234,82.624c0,46.379,31.595,84.111,70.43,84.111s70.43-37.732,70.43-84.111
	c0-40.993-24.685-75.225-57.234-82.624l13.738-18.971h82.598c4.024,0,7.286-3.262,7.286-7.286S369.555,139.832,365.531,139.832z
	 M311.857,256c0,38.344-25.057,69.538-55.857,69.538S200.143,294.344,200.143,256S225.2,186.462,256,186.462
	S311.857,217.656,311.857,256z"/>
</svg>